<svg width="26" height="20" viewBox="0 0 26 20" fill="none" xmlns="http://www.w3.org/2000/svg">
<path fill-rule="evenodd" clip-rule="evenodd" d="M24.9867 11.1787C24.9659 11.1995 24.9445 11.2192 24.9224 11.2377L16.4649 19.6952C16.0744 20.0858 15.4412 20.0858 15.0507 19.6952L14.5726 19.2171C14.182 18.8266 14.182 18.1935 14.5726 17.8029L21.0693 11.3062H0.999999C0.447714 11.3062 0 10.8585 0 10.3062V9.63004C0 9.07776 0.447715 8.63004 1 8.63004H21.0238L14.579 2.18521C14.1884 1.79468 14.1884 1.16152 14.579 0.770995L15.0571 0.292893C15.4476 -0.0976312 16.0808 -0.0976309 16.4713 0.292893L24.9728 8.79439C25.0865 8.86932 25.184 8.96685 25.259 9.08058L25.4648 9.28641C25.8553 9.67694 25.8553 10.3101 25.4648 10.7006L24.9867 11.1787Z" fill="#FF6A00"/>
</svg>
